<svg width="358" height="55" viewBox="0 0 358 55" fill="none" xmlns="http://www.w3.org/2000/svg">
<mask id="path-1-outside-1_134_836" maskUnits="userSpaceOnUse" x="-2" y="10" width="61" height="39" fill="black">
<rect fill="white" x="-2" y="10" width="61" height="39"/>
<path d="M14.742 44.378C12.362 44.378 10.248 43.944 8.4 43.076C6.552 42.18 5.11 40.948 4.074 39.38C3.038 37.784 2.52 35.978 2.52 33.962V24.554C2.52 22.538 3.024 20.746 4.032 19.178C5.068 17.61 6.496 16.392 8.316 15.524C10.136 14.656 12.222 14.222 14.574 14.222C16.926 14.222 19.012 14.6 20.832 15.356C22.652 16.084 24.066 17.106 25.074 18.422C26.11 19.738 26.628 21.236 26.628 22.916C26.628 23.756 26.348 24.414 25.788 24.89C25.228 25.366 24.486 25.604 23.562 25.604C23.366 25.604 23.072 25.576 22.68 25.52C22.736 25.184 22.764 24.652 22.764 23.924C22.764 22.72 22.414 21.642 21.714 20.69C21.042 19.738 20.076 18.996 18.816 18.464C17.584 17.932 16.17 17.666 14.574 17.666C13.006 17.666 11.606 17.96 10.374 18.548C9.142 19.108 8.176 19.92 7.476 20.984C6.804 22.02 6.468 23.21 6.468 24.554V33.962C6.468 35.306 6.818 36.51 7.518 37.574C8.218 38.638 9.198 39.464 10.458 40.052C11.718 40.64 13.146 40.934 14.742 40.934C16.31 40.934 17.71 40.668 18.942 40.136C20.202 39.604 21.168 38.848 21.84 37.868C22.54 36.888 22.89 35.782 22.89 34.55V32.198H17.598C16.73 32.198 16.03 31.904 15.498 31.316C14.966 30.7 14.7 29.902 14.7 28.922H24.948C25.508 28.922 25.956 29.09 26.292 29.426C26.656 29.762 26.838 30.21 26.838 30.77V34.592C26.838 36.496 26.32 38.19 25.284 39.674C24.276 41.158 22.848 42.32 21 43.16C19.18 43.972 17.094 44.378 14.742 44.378ZM41.9977 44.378C39.6177 44.378 37.5037 43.944 35.6557 43.076C33.8077 42.18 32.3657 40.948 31.3297 39.38C30.2937 37.784 29.7757 35.978 29.7757 33.962V24.554C29.7757 22.538 30.2797 20.746 31.2877 19.178C32.3237 17.61 33.7517 16.392 35.5717 15.524C37.3917 14.656 39.4777 14.222 41.8297 14.222C44.1817 14.222 46.2677 14.6 48.0877 15.356C49.9077 16.084 51.3217 17.106 52.3297 18.422C53.3657 19.738 53.8837 21.236 53.8837 22.916C53.8837 23.756 53.6037 24.414 53.0437 24.89C52.4837 25.366 51.7417 25.604 50.8177 25.604C50.6217 25.604 50.3277 25.576 49.9357 25.52C49.9917 25.184 50.0197 24.652 50.0197 23.924C50.0197 22.72 49.6697 21.642 48.9697 20.69C48.2977 19.738 47.3317 18.996 46.0717 18.464C44.8397 17.932 43.4257 17.666 41.8297 17.666C40.2617 17.666 38.8617 17.96 37.6297 18.548C36.3977 19.108 35.4317 19.92 34.7317 20.984C34.0597 22.02 33.7237 23.21 33.7237 24.554V33.962C33.7237 35.306 34.0737 36.51 34.7737 37.574C35.4737 38.638 36.4537 39.464 37.7137 40.052C38.9737 40.64 40.4017 40.934 41.9977 40.934C43.5657 40.934 44.9657 40.668 46.1977 40.136C47.4577 39.604 48.4237 38.848 49.0957 37.868C49.7957 36.888 50.1457 35.782 50.1457 34.55V32.198H44.8537C43.9857 32.198 43.2857 31.904 42.7537 31.316C42.2217 30.7 41.9557 29.902 41.9557 28.922H52.2037C52.7637 28.922 53.2117 29.09 53.5477 29.426C53.9117 29.762 54.0937 30.21 54.0937 30.77V34.592C54.0937 36.496 53.5757 38.19 52.5397 39.674C51.5317 41.158 50.1037 42.32 48.2557 43.16C46.4357 43.972 44.3497 44.378 41.9977 44.378Z"/>
</mask>
<path d="M14.742 44.378C12.362 44.378 10.248 43.944 8.4 43.076C6.552 42.18 5.11 40.948 4.074 39.38C3.038 37.784 2.52 35.978 2.52 33.962V24.554C2.52 22.538 3.024 20.746 4.032 19.178C5.068 17.61 6.496 16.392 8.316 15.524C10.136 14.656 12.222 14.222 14.574 14.222C16.926 14.222 19.012 14.6 20.832 15.356C22.652 16.084 24.066 17.106 25.074 18.422C26.11 19.738 26.628 21.236 26.628 22.916C26.628 23.756 26.348 24.414 25.788 24.89C25.228 25.366 24.486 25.604 23.562 25.604C23.366 25.604 23.072 25.576 22.68 25.52C22.736 25.184 22.764 24.652 22.764 23.924C22.764 22.72 22.414 21.642 21.714 20.69C21.042 19.738 20.076 18.996 18.816 18.464C17.584 17.932 16.17 17.666 14.574 17.666C13.006 17.666 11.606 17.96 10.374 18.548C9.142 19.108 8.176 19.92 7.476 20.984C6.804 22.02 6.468 23.21 6.468 24.554V33.962C6.468 35.306 6.818 36.51 7.518 37.574C8.218 38.638 9.198 39.464 10.458 40.052C11.718 40.64 13.146 40.934 14.742 40.934C16.31 40.934 17.71 40.668 18.942 40.136C20.202 39.604 21.168 38.848 21.84 37.868C22.54 36.888 22.89 35.782 22.89 34.55V32.198H17.598C16.73 32.198 16.03 31.904 15.498 31.316C14.966 30.7 14.7 29.902 14.7 28.922H24.948C25.508 28.922 25.956 29.09 26.292 29.426C26.656 29.762 26.838 30.21 26.838 30.77V34.592C26.838 36.496 26.32 38.19 25.284 39.674C24.276 41.158 22.848 42.32 21 43.16C19.18 43.972 17.094 44.378 14.742 44.378ZM41.9977 44.378C39.6177 44.378 37.5037 43.944 35.6557 43.076C33.8077 42.18 32.3657 40.948 31.3297 39.38C30.2937 37.784 29.7757 35.978 29.7757 33.962V24.554C29.7757 22.538 30.2797 20.746 31.2877 19.178C32.3237 17.61 33.7517 16.392 35.5717 15.524C37.3917 14.656 39.4777 14.222 41.8297 14.222C44.1817 14.222 46.2677 14.6 48.0877 15.356C49.9077 16.084 51.3217 17.106 52.3297 18.422C53.3657 19.738 53.8837 21.236 53.8837 22.916C53.8837 23.756 53.6037 24.414 53.0437 24.89C52.4837 25.366 51.7417 25.604 50.8177 25.604C50.6217 25.604 50.3277 25.576 49.9357 25.52C49.9917 25.184 50.0197 24.652 50.0197 23.924C50.0197 22.72 49.6697 21.642 48.9697 20.69C48.2977 19.738 47.3317 18.996 46.0717 18.464C44.8397 17.932 43.4257 17.666 41.8297 17.666C40.2617 17.666 38.8617 17.96 37.6297 18.548C36.3977 19.108 35.4317 19.92 34.7317 20.984C34.0597 22.02 33.7237 23.21 33.7237 24.554V33.962C33.7237 35.306 34.0737 36.51 34.7737 37.574C35.4737 38.638 36.4537 39.464 37.7137 40.052C38.9737 40.64 40.4017 40.934 41.9977 40.934C43.5657 40.934 44.9657 40.668 46.1977 40.136C47.4577 39.604 48.4237 38.848 49.0957 37.868C49.7957 36.888 50.1457 35.782 50.1457 34.55V32.198H44.8537C43.9857 32.198 43.2857 31.904 42.7537 31.316C42.2217 30.7 41.9557 29.902 41.9557 28.922H52.2037C52.7637 28.922 53.2117 29.09 53.5477 29.426C53.9117 29.762 54.0937 30.21 54.0937 30.77V34.592C54.0937 36.496 53.5757 38.19 52.5397 39.674C51.5317 41.158 50.1037 42.32 48.2557 43.16C46.4357 43.972 44.3497 44.378 41.9977 44.378Z" fill="#00AD4D"/>
<path d="M8.4 43.076L6.65491 46.6753C6.66971 46.6824 6.68456 46.6895 6.69945 46.6965L8.4 43.076ZM4.074 39.38L0.718881 41.5579C0.72477 41.567 0.730696 41.576 0.736659 41.585L4.074 39.38ZM4.032 19.178L0.694659 16.973C0.685447 16.9869 0.676323 17.0009 0.667286 17.015L4.032 19.178ZM8.316 15.524L10.0379 19.1344L8.316 15.524ZM20.832 15.356L19.2976 19.05C19.3138 19.0567 19.3301 19.0634 19.3464 19.0699L20.832 15.356ZM25.074 18.422L21.8985 20.8543C21.9092 20.8684 21.9201 20.8823 21.931 20.8962L25.074 18.422ZM25.788 24.89L28.3786 27.9378L28.3786 27.9378L25.788 24.89ZM22.68 25.52L18.7344 24.8624C18.5574 25.9247 18.8162 27.0136 19.4523 27.8826C20.0884 28.7517 21.0481 29.3275 22.1143 29.4798L22.68 25.52ZM21.714 20.69L18.4461 22.9967C18.461 23.0178 18.4761 23.0388 18.4914 23.0596L21.714 20.69ZM18.816 18.464L17.2303 22.1362C17.2402 22.1405 17.2501 22.1448 17.2601 22.149L18.816 18.464ZM10.374 18.548L12.0292 22.1895C12.0519 22.1792 12.0744 22.1686 12.0969 22.1579L10.374 18.548ZM7.476 20.984L4.13433 18.7855C4.12958 18.7928 4.12486 18.8 4.12015 18.8072L7.476 20.984ZM7.518 37.574L4.17633 39.7725H4.17633L7.518 37.574ZM10.458 40.052L12.1495 36.4273H12.1495L10.458 40.052ZM18.942 40.136L17.3861 36.451C17.3761 36.4552 17.3662 36.4595 17.3563 36.4637L18.942 40.136ZM21.84 37.868L18.5851 35.543C18.5702 35.5639 18.5555 35.5848 18.5411 35.6059L21.84 37.868ZM22.89 32.198H26.89C26.89 29.9889 25.0991 28.198 22.89 28.198V32.198ZM15.498 31.316L12.4707 33.9305C12.4908 33.9538 12.5112 33.9768 12.5319 33.9997L15.498 31.316ZM14.7 28.922V24.922C12.4909 24.922 10.7 26.7129 10.7 28.922H14.7ZM26.292 29.426L23.4636 32.2544C23.5013 32.2921 23.5397 32.3291 23.5789 32.3652L26.292 29.426ZM25.284 39.674L22.0042 37.3843C21.9944 37.3983 21.9847 37.4123 21.9751 37.4265L25.284 39.674ZM21 43.16L22.6298 46.8129C22.6383 46.8091 22.6467 46.8053 22.6552 46.8015L21 43.16ZM14.742 40.378C12.853 40.378 11.3353 40.0354 10.1005 39.4555L6.69945 46.6965C9.16074 47.8526 11.871 48.378 14.742 48.378V40.378ZM10.1451 39.4767C8.88152 38.8641 8.01513 38.0888 7.41134 37.175L0.736659 41.585C2.20487 43.8072 4.22248 45.4959 6.65491 46.6753L10.1451 39.4767ZM7.42912 37.2021C6.83954 36.2939 6.52 35.2533 6.52 33.962H-1.48C-1.48 36.7027 -0.763544 39.2741 0.718881 41.5579L7.42912 37.2021ZM6.52 33.962V24.554H-1.48V33.962H6.52ZM6.52 24.554C6.52 23.2398 6.83737 22.2111 7.39671 21.341L0.667286 17.015C-0.789372 19.2809 -1.48 21.8362 -1.48 24.554H6.52ZM7.36934 21.383C7.97528 20.4659 8.8244 19.7132 10.0379 19.1344L6.59411 11.9136C4.1676 13.0708 2.16072 14.7541 0.694659 16.973L7.36934 21.383ZM10.0379 19.1344C11.2376 18.5622 12.7191 18.222 14.574 18.222V10.222C11.7249 10.222 9.03438 10.7498 6.59411 11.9136L10.0379 19.1344ZM14.574 18.222C16.4992 18.222 18.0483 18.5311 19.2976 19.05L22.3664 11.662C19.9757 10.6689 17.3528 10.222 14.574 10.222V18.222ZM19.3464 19.0699C20.621 19.5797 21.4023 20.2065 21.8985 20.8543L28.2495 15.9897C26.7297 14.0055 24.683 12.5883 22.3176 11.6421L19.3464 19.0699ZM21.931 20.8962C22.41 21.5047 22.628 22.1305 22.628 22.916H30.628C30.628 20.3415 29.81 17.9713 28.217 15.9478L21.931 20.8962ZM22.628 22.916C22.628 22.8905 22.6331 22.7183 22.7374 22.4733C22.8476 22.2143 23.0175 21.9951 23.1974 21.8422L28.3786 27.9378C29.9661 26.5884 30.628 24.7423 30.628 22.916H22.628ZM23.1974 21.8422C23.3429 21.7186 23.4895 21.6488 23.5898 21.6166C23.6791 21.588 23.6841 21.604 23.562 21.604V29.604C25.1838 29.604 26.9245 29.1737 28.3786 27.9378L23.1974 21.8422ZM23.562 21.604C23.6052 21.604 23.6281 21.6054 23.6248 21.6053C23.6229 21.6052 23.6067 21.6042 23.5737 21.601C23.5059 21.5946 23.3991 21.5821 23.2457 21.5602L22.1143 29.4798C22.5452 29.5414 23.0701 29.604 23.562 29.604V21.604ZM26.6256 26.1776C26.7394 25.4947 26.764 24.6828 26.764 23.924H18.764C18.764 24.2413 18.7578 24.4828 18.7485 24.6588C18.7386 24.8482 18.7281 24.9006 18.7344 24.8624L26.6256 26.1776ZM26.764 23.924C26.764 21.8848 26.1518 19.9731 24.9366 18.3204L18.4914 23.0596C18.6762 23.3109 18.764 23.5552 18.764 23.924H26.764ZM24.9819 18.3833C23.809 16.7217 22.1987 15.5503 20.3719 14.779L17.2601 22.149C17.9533 22.4417 18.275 22.7543 18.4461 22.9967L24.9819 18.3833ZM20.4017 14.7917C18.5836 14.0066 16.6139 13.666 14.574 13.666V21.666C15.7261 21.666 16.5844 21.8574 17.2303 22.1362L20.4017 14.7917ZM14.574 13.666C12.4984 13.666 10.4957 14.0577 8.65108 14.9381L12.0969 22.1579C12.7163 21.8623 13.5136 21.666 14.574 21.666V13.666ZM8.71879 14.9065C6.84471 15.7584 5.27543 17.0511 4.13433 18.7855L10.8177 23.1825C11.0766 22.7889 11.4393 22.4576 12.0292 22.1895L8.71879 14.9065ZM4.12015 18.8072C2.99063 20.5486 2.468 22.5086 2.468 24.554H10.468C10.468 23.9114 10.6174 23.4914 10.8318 23.1608L4.12015 18.8072ZM2.468 24.554V33.962H10.468V24.554H2.468ZM2.468 33.962C2.468 36.042 3.02256 38.0187 4.17633 39.7725L10.8597 35.3755C10.6134 35.0013 10.468 34.57 10.468 33.962H2.468ZM4.17633 39.7725C5.32066 41.5118 6.89871 42.8051 8.76646 43.6767L12.1495 36.4273C11.4973 36.1229 11.1153 35.7641 10.8597 35.3755L4.17633 39.7725ZM8.76646 43.6767C10.6291 44.546 12.6478 44.934 14.742 44.934V36.934C13.6442 36.934 12.8069 36.734 12.1495 36.4273L8.76646 43.6767ZM14.742 44.934C16.7646 44.934 18.7179 44.5898 20.5277 43.8083L17.3563 36.4637C16.7021 36.7462 15.8554 36.934 14.742 36.934V44.934ZM20.4979 43.821C22.3541 43.0373 23.9716 41.8324 25.1389 40.1301L18.5411 35.6059C18.3644 35.8636 18.0499 36.1707 17.3861 36.451L20.4979 43.821ZM25.0949 40.193C26.2913 38.5181 26.89 36.5952 26.89 34.55H18.89C18.89 34.9688 18.7887 35.2579 18.5851 35.543L25.0949 40.193ZM26.89 34.55V32.198H18.89V34.55H26.89ZM22.89 28.198H17.598V36.198H22.89V28.198ZM17.598 28.198C17.6202 28.198 17.7652 28.2032 17.9709 28.2896C18.1853 28.3796 18.3549 28.5116 18.4641 28.6323L12.5319 33.9997C13.8989 35.5106 15.7193 36.198 17.598 36.198V28.198ZM18.5253 28.7015C18.565 28.7475 18.6016 28.7993 18.6324 28.8539C18.6631 28.9083 18.6826 28.9557 18.6942 28.9906C18.7175 29.0604 18.7 29.0515 18.7 28.922H10.7C10.7 30.657 11.1891 32.4466 12.4707 33.9305L18.5253 28.7015ZM14.7 32.922H24.948V24.922H14.7V32.922ZM24.948 32.922C24.8285 32.922 24.594 32.9038 24.2995 32.7933C23.9927 32.6783 23.7022 32.4931 23.4636 32.2544L29.1204 26.5976C27.9015 25.3786 26.365 24.922 24.948 24.922V32.922ZM23.5789 32.3652C23.3394 32.1442 23.1316 31.8542 22.9956 31.5195C22.8642 31.1959 22.838 30.9255 22.838 30.77H30.838C30.838 29.2544 30.3006 27.6826 29.0051 26.4868L23.5789 32.3652ZM22.838 30.77V34.592H30.838V30.77H22.838ZM22.838 34.592C22.838 35.7222 22.5462 36.6079 22.0042 37.3843L28.5638 41.9637C30.0938 39.7721 30.838 37.2698 30.838 34.592H22.838ZM21.9751 37.4265C21.4322 38.2258 20.6141 38.9416 19.3448 39.5185L22.6552 46.8015C25.0819 45.6984 27.1198 44.0902 28.5929 41.9215L21.9751 37.4265ZM19.3702 39.5071C18.1471 40.0528 16.6323 40.378 14.742 40.378V48.378C17.5557 48.378 20.2129 47.8912 22.6298 46.8129L19.3702 39.5071ZM35.6557 43.076L33.9106 46.6753C33.9254 46.6824 33.9403 46.6895 33.9552 46.6965L35.6557 43.076ZM31.3297 39.38L27.9746 41.5579C27.9805 41.567 27.9864 41.576 27.9924 41.585L31.3297 39.38ZM31.2877 19.178L27.9504 16.973C27.9412 16.9869 27.932 17.0009 27.923 17.015L31.2877 19.178ZM35.5717 15.524L37.2936 19.1344L35.5717 15.524ZM48.0877 15.356L46.5533 19.05C46.5695 19.0567 46.5858 19.0634 46.6021 19.0699L48.0877 15.356ZM52.3297 18.422L49.1542 20.8543C49.165 20.8684 49.1758 20.8823 49.1868 20.8962L52.3297 18.422ZM53.0437 24.89L55.6343 27.9378L55.6343 27.9378L53.0437 24.89ZM49.9357 25.52L45.9901 24.8624C45.8131 25.9247 46.0719 27.0136 46.708 27.8826C47.3441 28.7517 48.3038 29.3275 49.37 29.4798L49.9357 25.52ZM48.9697 20.69L45.7018 22.9967C45.7167 23.0178 45.7318 23.0388 45.7471 23.0596L48.9697 20.69ZM46.0717 18.464L44.486 22.1362C44.4959 22.1405 44.5058 22.1448 44.5158 22.149L46.0717 18.464ZM37.6297 18.548L39.2849 22.1895C39.3076 22.1792 39.3302 22.1686 39.3526 22.1579L37.6297 18.548ZM34.7317 20.984L31.39 18.7855C31.3853 18.7928 31.3806 18.8 31.3759 18.8072L34.7317 20.984ZM34.7737 37.574L31.432 39.7725H31.432L34.7737 37.574ZM37.7137 40.052L39.4052 36.4273L37.7137 40.052ZM46.1977 40.136L44.6418 36.451C44.6318 36.4552 44.6219 36.4595 44.612 36.4637L46.1977 40.136ZM49.0957 37.868L45.8408 35.543C45.8259 35.5639 45.8112 35.5848 45.7968 35.6059L49.0957 37.868ZM50.1457 32.198H54.1457C54.1457 29.9889 52.3548 28.198 50.1457 28.198V32.198ZM42.7537 31.316L39.7264 33.9305C39.7465 33.9538 39.7669 33.9768 39.7876 33.9997L42.7537 31.316ZM41.9557 28.922V24.922C39.7466 24.922 37.9557 26.7129 37.9557 28.922H41.9557ZM53.5477 29.426L50.7193 32.2544C50.757 32.2921 50.7954 32.3291 50.8346 32.3652L53.5477 29.426ZM52.5397 39.674L49.2599 37.3843C49.2501 37.3983 49.2404 37.4123 49.2308 37.4265L52.5397 39.674ZM48.2557 43.16L49.8855 46.8129C49.894 46.8091 49.9024 46.8053 49.9109 46.8015L48.2557 43.16ZM41.9977 40.378C40.1087 40.378 38.591 40.0354 37.3563 39.4555L33.9552 46.6965C36.4164 47.8526 39.1267 48.378 41.9977 48.378V40.378ZM37.4008 39.4767C36.1372 38.8641 35.2708 38.0888 34.667 37.175L27.9924 41.585C29.4606 43.8072 31.4782 45.4959 33.9106 46.6753L37.4008 39.4767ZM34.6848 37.2021C34.0952 36.2939 33.7757 35.2533 33.7757 33.962H25.7757C25.7757 36.7027 26.4922 39.2741 27.9746 41.5579L34.6848 37.2021ZM33.7757 33.962V24.554H25.7757V33.962H33.7757ZM33.7757 24.554C33.7757 23.2398 34.0931 22.2111 34.6524 21.341L27.923 17.015C26.4663 19.2809 25.7757 21.8362 25.7757 24.554H33.7757ZM34.625 21.383C35.231 20.4659 36.0801 19.7132 37.2936 19.1344L33.8498 11.9136C31.4233 13.0708 29.4164 14.7541 27.9504 16.973L34.625 21.383ZM37.2936 19.1344C38.4933 18.5622 39.9748 18.222 41.8297 18.222V10.222C38.9806 10.222 36.2901 10.7498 33.8498 11.9136L37.2936 19.1344ZM41.8297 18.222C43.7549 18.222 45.304 18.5311 46.5533 19.05L49.6221 11.662C47.2314 10.6689 44.6085 10.222 41.8297 10.222V18.222ZM46.6021 19.0699C47.8767 19.5797 48.658 20.2065 49.1542 20.8543L55.5052 15.9897C53.9854 14.0055 51.9387 12.5883 49.5733 11.6421L46.6021 19.0699ZM49.1868 20.8962C49.6657 21.5047 49.8837 22.1305 49.8837 22.916H57.8837C57.8837 20.3415 57.0657 17.9713 55.4727 15.9478L49.1868 20.8962ZM49.8837 22.916C49.8837 22.8905 49.8888 22.7183 49.9931 22.4733C50.1033 22.2143 50.2732 21.9951 50.4531 21.8422L55.6343 27.9378C57.2218 26.5884 57.8837 24.7423 57.8837 22.916H49.8837ZM50.4531 21.8422C50.5986 21.7186 50.7452 21.6488 50.8455 21.6166C50.9348 21.588 50.9398 21.604 50.8177 21.604V29.604C52.4395 29.604 54.1802 29.1737 55.6343 27.9378L50.4531 21.8422ZM50.8177 21.604C50.8609 21.604 50.8838 21.6054 50.8805 21.6053C50.8786 21.6052 50.8624 21.6042 50.8294 21.601C50.7616 21.5946 50.6548 21.5821 50.5014 21.5602L49.37 29.4798C49.8009 29.5414 50.3258 29.604 50.8177 29.604V21.604ZM53.8813 26.1776C53.9951 25.4947 54.0197 24.6828 54.0197 23.924H46.0197C46.0197 24.2413 46.0135 24.4828 46.0042 24.6588C45.9943 24.8482 45.9838 24.9006 45.9901 24.8624L53.8813 26.1776ZM54.0197 23.924C54.0197 21.8848 53.4075 19.9731 52.1923 18.3204L45.7471 23.0596C45.9319 23.3109 46.0197 23.5552 46.0197 23.924H54.0197ZM52.2376 18.3833C51.0647 16.7217 49.4544 15.5503 47.6276 14.779L44.5158 22.149C45.209 22.4417 45.5307 22.7543 45.7018 22.9967L52.2376 18.3833ZM47.6574 14.7917C45.8393 14.0066 43.8696 13.666 41.8297 13.666V21.666C42.9818 21.666 43.8401 21.8574 44.486 22.1362L47.6574 14.7917ZM41.8297 13.666C39.7541 13.666 37.7514 14.0577 35.9068 14.9381L39.3526 22.1579C39.972 21.8623 40.7693 21.666 41.8297 21.666V13.666ZM35.9745 14.9065C34.1004 15.7584 32.5311 17.0511 31.39 18.7855L38.0734 23.1825C38.3323 22.7889 38.695 22.4576 39.2849 22.1895L35.9745 14.9065ZM31.3759 18.8072C30.2463 20.5486 29.7237 22.5086 29.7237 24.554H37.7237C37.7237 23.9114 37.8731 23.4914 38.0875 23.1608L31.3759 18.8072ZM29.7237 24.554V33.962H37.7237V24.554H29.7237ZM29.7237 33.962C29.7237 36.042 30.2783 38.0187 31.432 39.7725L38.1154 35.3755C37.8691 35.0013 37.7237 34.57 37.7237 33.962H29.7237ZM31.432 39.7725C32.5764 41.5118 34.1544 42.8051 36.0222 43.6767L39.4052 36.4273C38.753 36.1229 38.371 35.7641 38.1154 35.3755L31.432 39.7725ZM36.0222 43.6767C37.8848 44.546 39.9035 44.934 41.9977 44.934V36.934C40.8999 36.934 40.0626 36.734 39.4052 36.4273L36.0222 43.6767ZM41.9977 44.934C44.0203 44.934 45.9736 44.5898 47.7834 43.8083L44.612 36.4637C43.9578 36.7462 43.1111 36.934 41.9977 36.934V44.934ZM47.7536 43.821C49.6098 43.0373 51.2273 41.8324 52.3946 40.1301L45.7968 35.6059C45.6201 35.8636 45.3057 36.1707 44.6418 36.451L47.7536 43.821ZM52.3506 40.193C53.547 38.5181 54.1457 36.5952 54.1457 34.55H46.1457C46.1457 34.9688 46.0444 35.2579 45.8408 35.543L52.3506 40.193ZM54.1457 34.55V32.198H46.1457V34.55H54.1457ZM50.1457 28.198H44.8537V36.198H50.1457V28.198ZM44.8537 28.198C44.8759 28.198 45.0209 28.2032 45.2266 28.2896C45.441 28.3796 45.6106 28.5116 45.7198 28.6323L39.7876 33.9997C41.1546 35.5106 42.975 36.198 44.8537 36.198V28.198ZM45.781 28.7015C45.8207 28.7475 45.8573 28.7993 45.8881 28.8539C45.9188 28.9083 45.9383 28.9557 45.9499 28.9906C45.9732 29.0604 45.9557 29.0515 45.9557 28.922H37.9557C37.9557 30.657 38.4448 32.4466 39.7264 33.9305L45.781 28.7015ZM41.9557 32.922H52.2037V24.922H41.9557V32.922ZM52.2037 32.922C52.0842 32.922 51.8497 32.9038 51.5552 32.7933C51.2484 32.6783 50.9579 32.4931 50.7193 32.2544L56.3761 26.5976C55.1572 25.3786 53.6207 24.922 52.2037 24.922V32.922ZM50.8346 32.3652C50.5951 32.1442 50.3873 31.8542 50.2513 31.5195C50.1199 31.1959 50.0937 30.9255 50.0937 30.77H58.0937C58.0937 29.2544 57.5563 27.6826 56.2608 26.4868L50.8346 32.3652ZM50.0937 30.77V34.592H58.0937V30.77H50.0937ZM50.0937 34.592C50.0937 35.7222 49.8019 36.6079 49.2599 37.3843L55.8195 41.9637C57.3495 39.7721 58.0937 37.2698 58.0937 34.592H50.0937ZM49.2308 37.4265C48.6879 38.2258 47.8698 38.9416 46.6005 39.5185L49.9109 46.8015C52.3376 45.6984 54.3755 44.0902 55.8486 41.9215L49.2308 37.4265ZM46.6259 39.5071C45.4028 40.0528 43.888 40.378 41.9977 40.378V48.378C44.8114 48.378 47.4686 47.8912 49.8855 46.8129L46.6259 39.5071Z" fill="url(#paint0_linear_134_836)" mask="url(#path-1-outside-1_134_836)"/>
<path d="M74.65 28.5H83.75V45H82.25L80.95 41.8C80.2833 42.9333 79.3833 43.8833 78.25 44.65C77.1167 45.3833 75.8667 45.75 74.5 45.75C72.7 45.75 71.2667 45.45 70.2 44.85C69.1333 44.2167 68.3667 43.3667 67.9 42.3C67.4667 41.2333 67.25 40.05 67.25 38.75V18.75C67.25 16.5833 67.9167 14.8833 69.25 13.65C70.5833 12.3833 72.65 11.75 75.45 11.75C78.25 11.75 80.3333 12.3833 81.7 13.65C83.0667 14.8833 83.75 16.5833 83.75 18.75V21.5H80.25V18.75C80.25 17.4833 79.85 16.5 79.05 15.8C78.2833 15.1 77.0833 14.75 75.45 14.75C73.85 14.75 72.6667 15.1 71.9 15.8C71.1333 16.5 70.75 17.4833 70.75 18.75V38.75C70.75 39.8833 70.9833 40.8333 71.45 41.6C71.95 42.3667 72.95 42.75 74.45 42.75C75.4833 42.75 76.4333 42.4833 77.3 41.95C78.1667 41.3833 78.8667 40.7167 79.4 39.95C79.9667 39.15 80.25 38.4167 80.25 37.75V31.5H74.65V28.5ZM105.25 36H108.75V38.75C108.75 40.9167 108.083 42.6333 106.75 43.9C105.417 45.1333 103.35 45.75 100.55 45.75C97.75 45.75 95.6667 45.1333 94.3 43.9C92.9333 42.6333 92.25 40.9167 92.25 38.75V18.75C92.25 16.5833 92.9167 14.8833 94.25 13.65C95.5833 12.3833 97.65 11.75 100.45 11.75C103.25 11.75 105.333 12.3833 106.7 13.65C108.067 14.8833 108.75 16.5833 108.75 18.75V29.75H95.75V38.75C95.75 39.9833 96.1333 40.9667 96.9 41.7C97.7 42.4 98.9167 42.75 100.55 42.75C102.15 42.75 103.333 42.4 104.1 41.7C104.867 40.9667 105.25 39.9833 105.25 38.75V36ZM95.75 26.75H105.25V18.75C105.25 17.4833 104.85 16.5 104.05 15.8C103.283 15.1 102.083 14.75 100.45 14.75C98.85 14.75 97.6667 15.1 96.9 15.8C96.1333 16.5 95.75 17.4833 95.75 18.75V26.75ZM128.5 12.5V15.5H121V39.45C121 40.35 121.233 41.1333 121.7 41.8C122.167 42.4333 122.867 42.75 123.8 42.75C124.7 42.75 125.367 42.4333 125.8 41.8C126.267 41.1333 126.5 40.35 126.5 39.45V33.5H130V39.25C130 41.4167 129.417 43.05 128.25 44.15C127.117 45.2167 125.633 45.75 123.8 45.75C121.967 45.75 120.45 45.2167 119.25 44.15C118.083 43.05 117.5 41.4167 117.5 39.25V12.5H128.5ZM147.494 12.5V15.5H139.994V39.45C139.994 40.35 140.227 41.1333 140.694 41.8C141.161 42.4333 141.861 42.75 142.794 42.75C143.694 42.75 144.361 42.4333 144.794 41.8C145.261 41.1333 145.494 40.35 145.494 39.45V33.5H148.994V39.25C148.994 41.4167 148.411 43.05 147.244 44.15C146.111 45.2167 144.627 45.75 142.794 45.75C140.961 45.75 139.444 45.2167 138.244 44.15C137.077 43.05 136.494 41.4167 136.494 39.25V12.5H147.494ZM155.988 45V12.5H159.488V45H155.988ZM169.465 45V12.5H170.965L172.215 15.75C172.915 14.5833 173.832 13.6333 174.965 12.9C176.132 12.1333 177.432 11.75 178.865 11.75C180.698 11.75 182.148 12.0667 183.215 12.7C184.282 13.3 185.048 14.1333 185.515 15.2C185.982 16.2333 186.215 17.4167 186.215 18.75V45H182.715V18.75C182.715 17.6167 182.465 16.6667 181.965 15.9C181.498 15.1333 180.482 14.75 178.915 14.75C177.882 14.75 176.898 15.0333 175.965 15.6C175.065 16.1333 174.332 16.8 173.765 17.6C173.232 18.3667 172.965 19.0833 172.965 19.75V45H169.465ZM202.384 28.5H211.484V38.75C211.484 40.9167 210.818 42.6333 209.484 43.9C208.151 45.1333 206.084 45.75 203.284 45.75C200.484 45.75 198.401 45.1333 197.034 43.9C195.668 42.6333 194.984 40.9167 194.984 38.75V18.75C194.984 16.5833 195.651 14.8833 196.984 13.65C198.318 12.3833 200.384 11.75 203.184 11.75C205.984 11.75 208.068 12.3833 209.434 13.65C210.801 14.8833 211.484 16.5833 211.484 18.75V21.5H207.984V18.75C207.984 17.4833 207.584 16.5 206.784 15.8C206.018 15.1 204.818 14.75 203.184 14.75C201.584 14.75 200.401 15.1 199.634 15.8C198.868 16.5 198.484 17.4833 198.484 18.75V38.75C198.484 39.9833 198.868 40.9667 199.634 41.7C200.434 42.4 201.651 42.75 203.284 42.75C204.884 42.75 206.068 42.4 206.834 41.7C207.601 40.9667 207.984 39.9833 207.984 38.75V31.5H202.384V28.5ZM220.734 45V12.5H222.234L223.684 16.2C224.151 14.9333 224.784 13.8833 225.584 13.05C226.384 12.1833 227.451 11.75 228.784 11.75C230.718 11.75 232.184 12.3 233.184 13.4C234.218 14.4667 234.734 16.0833 234.734 18.25V21.5H231.384V18.05C231.384 17.0833 231.168 16.3 230.734 15.7C230.301 15.0667 229.601 14.75 228.634 14.75C228.001 14.75 227.334 15 226.634 15.5C225.968 16 225.401 16.8 224.934 17.9C224.468 18.9667 224.234 20.3833 224.234 22.15V45H220.734ZM253.004 36H256.504V38.75C256.504 40.9167 255.837 42.6333 254.504 43.9C253.171 45.1333 251.104 45.75 248.304 45.75C245.504 45.75 243.421 45.1333 242.054 43.9C240.687 42.6333 240.004 40.9167 240.004 38.75V18.75C240.004 16.5833 240.671 14.8833 242.004 13.65C243.337 12.3833 245.404 11.75 248.204 11.75C251.004 11.75 253.087 12.3833 254.454 13.65C255.821 14.8833 256.504 16.5833 256.504 18.75V29.75H243.504V38.75C243.504 39.9833 243.887 40.9667 244.654 41.7C245.454 42.4 246.671 42.75 248.304 42.75C249.904 42.75 251.087 42.4 251.854 41.7C252.621 40.9667 253.004 39.9833 253.004 38.75V36ZM243.504 26.75H253.004V18.75C253.004 17.4833 252.604 16.5 251.804 15.8C251.037 15.1 249.837 14.75 248.204 14.75C246.604 14.75 245.421 15.1 244.654 15.8C243.887 16.5 243.504 17.4833 243.504 18.75V26.75ZM278.004 36H281.504V38.75C281.504 40.9167 280.837 42.6333 279.504 43.9C278.171 45.1333 276.104 45.75 273.304 45.75C270.504 45.75 268.421 45.1333 267.054 43.9C265.687 42.6333 265.004 40.9167 265.004 38.75V18.75C265.004 16.5833 265.671 14.8833 267.004 13.65C268.337 12.3833 270.404 11.75 273.204 11.75C276.004 11.75 278.087 12.3833 279.454 13.65C280.821 14.8833 281.504 16.5833 281.504 18.75V29.75H268.504V38.75C268.504 39.9833 268.887 40.9667 269.654 41.7C270.454 42.4 271.671 42.75 273.304 42.75C274.904 42.75 276.087 42.4 276.854 41.7C277.621 40.9667 278.004 39.9833 278.004 38.75V36ZM268.504 26.75H278.004V18.75C278.004 17.4833 277.604 16.5 276.804 15.8C276.037 15.1 274.837 14.75 273.204 14.75C271.604 14.75 270.421 15.1 269.654 15.8C268.887 16.5 268.504 17.4833 268.504 18.75V26.75ZM290.754 45V12.5H292.254L293.504 15.75C294.204 14.5833 295.121 13.6333 296.254 12.9C297.421 12.1333 298.721 11.75 300.154 11.75C301.987 11.75 303.437 12.0667 304.504 12.7C305.571 13.3 306.337 14.1333 306.804 15.2C307.271 16.2333 307.504 17.4167 307.504 18.75V45H304.004V18.75C304.004 17.6167 303.754 16.6667 303.254 15.9C302.787 15.1333 301.771 14.75 300.204 14.75C299.171 14.75 298.187 15.0333 297.254 15.6C296.354 16.1333 295.621 16.8 295.054 17.6C294.521 18.3667 294.254 19.0833 294.254 19.75V45H290.754ZM329.273 36H332.773V38.75C332.773 40.9167 332.107 42.6333 330.773 43.9C329.44 45.1333 327.373 45.75 324.573 45.75C321.773 45.75 319.69 45.1333 318.323 43.9C316.957 42.6333 316.273 40.9167 316.273 38.75V18.75C316.273 16.5833 316.94 14.8833 318.273 13.65C319.607 12.3833 321.673 11.75 324.473 11.75C327.273 11.75 329.357 12.3833 330.723 13.65C332.09 14.8833 332.773 16.5833 332.773 18.75V29.75H319.773V38.75C319.773 39.9833 320.157 40.9667 320.923 41.7C321.723 42.4 322.94 42.75 324.573 42.75C326.173 42.75 327.357 42.4 328.123 41.7C328.89 40.9667 329.273 39.9833 329.273 38.75V36ZM319.773 26.75H329.273V18.75C329.273 17.4833 328.873 16.5 328.073 15.8C327.307 15.1 326.107 14.75 324.473 14.75C322.873 14.75 321.69 15.1 320.923 15.8C320.157 16.5 319.773 17.4833 319.773 18.75V26.75ZM342.023 45V12.5H343.523L344.973 16.2C345.44 14.9333 346.073 13.8833 346.873 13.05C347.673 12.1833 348.74 11.75 350.073 11.75C352.007 11.75 353.473 12.3 354.473 13.4C355.507 14.4667 356.023 16.0833 356.023 18.25V21.5H352.673V18.05C352.673 17.0833 352.457 16.3 352.023 15.7C351.59 15.0667 350.89 14.75 349.923 14.75C349.29 14.75 348.623 15 347.923 15.5C347.257 16 346.69 16.8 346.223 17.9C345.757 18.9667 345.523 20.3833 345.523 22.15V45H342.023Z" fill="url(#paint1_linear_134_836)"/>
<defs>
<linearGradient id="paint0_linear_134_836" x1="49.59" y1="6.435" x2="7.81122" y2="56.4771" gradientUnits="userSpaceOnUse">
<stop stop-color="#EEF310"/>
<stop offset="0.488" stop-color="#00AD4D"/>
<stop offset="0.803" stop-color="#006340"/>
<stop offset="1" stop-color="#00301F"/>
</linearGradient>
<linearGradient id="paint1_linear_134_836" x1="319.65" y1="15.744" x2="315.053" y2="64.7218" gradientUnits="userSpaceOnUse">
<stop stop-color="#EEF310"/>
<stop offset="0.488" stop-color="#00AD4D"/>
<stop offset="0.803" stop-color="#006340"/>
<stop offset="1" stop-color="#00301F"/>
</linearGradient>
</defs>
</svg>
